<mxfile host="app.diagrams.net" agent="Mozilla/5.0 (Windows NT 10.0; Win64; x64) AppleWebKit/537.36 (KHTML, like Gecko) Chrome/129.0.0.0 Safari/537.36" version="24.7.17">
  <diagram name="Page-1" id="HEyfU4kfFIw5BUZET6r_">
    <mxGraphModel dx="1050" dy="574" grid="1" gridSize="10" guides="1" tooltips="1" connect="1" arrows="1" fold="1" page="1" pageScale="1" pageWidth="827" pageHeight="1169" math="0" shadow="0">
      <root>
        <mxCell id="0" />
        <mxCell id="1" parent="0" />
        <mxCell id="x-BZ_oqAYy6QeNeLVGzr-4" style="edgeStyle=orthogonalEdgeStyle;rounded=0;orthogonalLoop=1;jettySize=auto;html=1;exitX=0.5;exitY=0.5;exitDx=0;exitDy=0;exitPerimeter=0;entryX=0;entryY=0.5;entryDx=0;entryDy=0;" parent="1" source="x-BZ_oqAYy6QeNeLVGzr-2" target="x-BZ_oqAYy6QeNeLVGzr-3" edge="1">
          <mxGeometry relative="1" as="geometry">
            <Array as="points">
              <mxPoint x="75" y="45" />
            </Array>
          </mxGeometry>
        </mxCell>
        <mxCell id="jJ9Ddf4tCl4OlhonC4Wa-8" style="edgeStyle=orthogonalEdgeStyle;rounded=0;orthogonalLoop=1;jettySize=auto;html=1;exitX=0.5;exitY=0.5;exitDx=0;exitDy=0;exitPerimeter=0;entryX=0;entryY=0.5;entryDx=0;entryDy=0;" parent="1" source="x-BZ_oqAYy6QeNeLVGzr-2" target="jJ9Ddf4tCl4OlhonC4Wa-7" edge="1">
          <mxGeometry relative="1" as="geometry">
            <Array as="points">
              <mxPoint x="310" y="70" />
              <mxPoint x="310" y="285" />
            </Array>
          </mxGeometry>
        </mxCell>
        <mxCell id="jJ9Ddf4tCl4OlhonC4Wa-10" style="edgeStyle=orthogonalEdgeStyle;rounded=0;orthogonalLoop=1;jettySize=auto;html=1;exitX=0.5;exitY=0.5;exitDx=0;exitDy=0;exitPerimeter=0;entryX=0;entryY=0.5;entryDx=0;entryDy=0;" parent="1" source="x-BZ_oqAYy6QeNeLVGzr-2" target="jJ9Ddf4tCl4OlhonC4Wa-9" edge="1">
          <mxGeometry relative="1" as="geometry">
            <Array as="points">
              <mxPoint x="280" y="70" />
              <mxPoint x="280" y="405" />
            </Array>
          </mxGeometry>
        </mxCell>
        <mxCell id="jJ9Ddf4tCl4OlhonC4Wa-30" style="edgeStyle=orthogonalEdgeStyle;rounded=0;orthogonalLoop=1;jettySize=auto;html=1;exitX=0.5;exitY=0.5;exitDx=0;exitDy=0;exitPerimeter=0;entryX=0;entryY=0.5;entryDx=0;entryDy=0;" parent="1" source="x-BZ_oqAYy6QeNeLVGzr-2" target="jJ9Ddf4tCl4OlhonC4Wa-29" edge="1">
          <mxGeometry relative="1" as="geometry">
            <Array as="points">
              <mxPoint x="170" y="70" />
              <mxPoint x="170" y="685" />
            </Array>
          </mxGeometry>
        </mxCell>
        <mxCell id="jJ9Ddf4tCl4OlhonC4Wa-31" style="edgeStyle=orthogonalEdgeStyle;rounded=0;orthogonalLoop=1;jettySize=auto;html=1;exitX=0.5;exitY=0.5;exitDx=0;exitDy=0;exitPerimeter=0;entryX=0;entryY=0.5;entryDx=0;entryDy=0;" parent="1" source="x-BZ_oqAYy6QeNeLVGzr-2" target="jJ9Ddf4tCl4OlhonC4Wa-12" edge="1">
          <mxGeometry relative="1" as="geometry">
            <Array as="points">
              <mxPoint x="210" y="70" />
              <mxPoint x="210" y="520" />
            </Array>
          </mxGeometry>
        </mxCell>
        <mxCell id="jJ9Ddf4tCl4OlhonC4Wa-32" style="edgeStyle=orthogonalEdgeStyle;rounded=0;orthogonalLoop=1;jettySize=auto;html=1;exitX=0.5;exitY=0.5;exitDx=0;exitDy=0;exitPerimeter=0;entryX=0;entryY=0.5;entryDx=0;entryDy=0;" parent="1" source="x-BZ_oqAYy6QeNeLVGzr-2" target="jJ9Ddf4tCl4OlhonC4Wa-13" edge="1">
          <mxGeometry relative="1" as="geometry">
            <Array as="points">
              <mxPoint x="210" y="70" />
              <mxPoint x="210" y="470" />
              <mxPoint x="400" y="470" />
              <mxPoint x="400" y="520" />
            </Array>
          </mxGeometry>
        </mxCell>
        <mxCell id="x-BZ_oqAYy6QeNeLVGzr-2" value="Investor" style="shape=umlActor;verticalLabelPosition=bottom;verticalAlign=top;html=1;" parent="1" vertex="1">
          <mxGeometry x="60" y="40" width="30" height="60" as="geometry" />
        </mxCell>
        <mxCell id="jJ9Ddf4tCl4OlhonC4Wa-5" value="Include" style="edgeStyle=orthogonalEdgeStyle;rounded=0;orthogonalLoop=1;jettySize=auto;html=1;exitX=0.5;exitY=1;exitDx=0;exitDy=0;entryX=0.5;entryY=0;entryDx=0;entryDy=0;" parent="1" source="x-BZ_oqAYy6QeNeLVGzr-3" target="jJ9Ddf4tCl4OlhonC4Wa-4" edge="1">
          <mxGeometry relative="1" as="geometry" />
        </mxCell>
        <mxCell id="x-BZ_oqAYy6QeNeLVGzr-3" value="View portofolio details" style="ellipse;whiteSpace=wrap;html=1;fillColor=#dae8fc;gradientColor=#7ea6e0;strokeColor=#6c8ebf;" parent="1" vertex="1">
          <mxGeometry x="330" y="10" width="140" height="70" as="geometry" />
        </mxCell>
        <mxCell id="x-BZ_oqAYy6QeNeLVGzr-8" style="edgeStyle=orthogonalEdgeStyle;rounded=0;orthogonalLoop=1;jettySize=auto;html=1;exitX=0.5;exitY=0.5;exitDx=0;exitDy=0;exitPerimeter=0;entryX=1;entryY=0.5;entryDx=0;entryDy=0;" parent="1" source="x-BZ_oqAYy6QeNeLVGzr-5" target="x-BZ_oqAYy6QeNeLVGzr-3" edge="1">
          <mxGeometry relative="1" as="geometry">
            <Array as="points">
              <mxPoint x="745" y="70" />
              <mxPoint x="500" y="70" />
              <mxPoint x="500" y="45" />
            </Array>
          </mxGeometry>
        </mxCell>
        <mxCell id="jJ9Ddf4tCl4OlhonC4Wa-6" style="edgeStyle=orthogonalEdgeStyle;rounded=0;orthogonalLoop=1;jettySize=auto;html=1;exitX=0.5;exitY=0.5;exitDx=0;exitDy=0;exitPerimeter=0;entryX=1;entryY=0.5;entryDx=0;entryDy=0;" parent="1" source="x-BZ_oqAYy6QeNeLVGzr-5" target="jJ9Ddf4tCl4OlhonC4Wa-4" edge="1">
          <mxGeometry relative="1" as="geometry">
            <Array as="points">
              <mxPoint x="745" y="165" />
            </Array>
          </mxGeometry>
        </mxCell>
        <mxCell id="jJ9Ddf4tCl4OlhonC4Wa-11" style="edgeStyle=orthogonalEdgeStyle;rounded=0;orthogonalLoop=1;jettySize=auto;html=1;exitX=0.5;exitY=0.5;exitDx=0;exitDy=0;exitPerimeter=0;entryX=1;entryY=0.5;entryDx=0;entryDy=0;" parent="1" source="x-BZ_oqAYy6QeNeLVGzr-5" target="jJ9Ddf4tCl4OlhonC4Wa-9" edge="1">
          <mxGeometry relative="1" as="geometry">
            <Array as="points">
              <mxPoint x="490" y="330" />
              <mxPoint x="490" y="405" />
            </Array>
          </mxGeometry>
        </mxCell>
        <mxCell id="jJ9Ddf4tCl4OlhonC4Wa-24" style="edgeStyle=orthogonalEdgeStyle;rounded=0;orthogonalLoop=1;jettySize=auto;html=1;exitX=0.5;exitY=0.5;exitDx=0;exitDy=0;exitPerimeter=0;entryX=0.5;entryY=0;entryDx=0;entryDy=0;" parent="1" source="x-BZ_oqAYy6QeNeLVGzr-5" target="jJ9Ddf4tCl4OlhonC4Wa-12" edge="1">
          <mxGeometry relative="1" as="geometry">
            <Array as="points">
              <mxPoint x="745" y="450" />
              <mxPoint x="310" y="450" />
            </Array>
          </mxGeometry>
        </mxCell>
        <mxCell id="jJ9Ddf4tCl4OlhonC4Wa-25" style="edgeStyle=orthogonalEdgeStyle;rounded=0;orthogonalLoop=1;jettySize=auto;html=1;exitX=0.5;exitY=0.5;exitDx=0;exitDy=0;exitPerimeter=0;entryX=0.5;entryY=0;entryDx=0;entryDy=0;" parent="1" source="x-BZ_oqAYy6QeNeLVGzr-5" target="jJ9Ddf4tCl4OlhonC4Wa-13" edge="1">
          <mxGeometry relative="1" as="geometry">
            <Array as="points">
              <mxPoint x="745" y="450" />
              <mxPoint x="490" y="450" />
            </Array>
          </mxGeometry>
        </mxCell>
        <mxCell id="jJ9Ddf4tCl4OlhonC4Wa-28" style="edgeStyle=orthogonalEdgeStyle;rounded=0;orthogonalLoop=1;jettySize=auto;html=1;exitX=0.5;exitY=0.5;exitDx=0;exitDy=0;exitPerimeter=0;entryX=1;entryY=0.5;entryDx=0;entryDy=0;" parent="1" source="x-BZ_oqAYy6QeNeLVGzr-5" target="jJ9Ddf4tCl4OlhonC4Wa-7" edge="1">
          <mxGeometry relative="1" as="geometry">
            <Array as="points">
              <mxPoint x="745" y="285" />
            </Array>
          </mxGeometry>
        </mxCell>
        <mxCell id="jJ9Ddf4tCl4OlhonC4Wa-33" style="edgeStyle=orthogonalEdgeStyle;rounded=0;orthogonalLoop=1;jettySize=auto;html=1;exitX=0.5;exitY=0.5;exitDx=0;exitDy=0;exitPerimeter=0;entryX=1;entryY=0.5;entryDx=0;entryDy=0;" parent="1" source="x-BZ_oqAYy6QeNeLVGzr-5" target="jJ9Ddf4tCl4OlhonC4Wa-29" edge="1">
          <mxGeometry relative="1" as="geometry">
            <Array as="points">
              <mxPoint x="745" y="685" />
            </Array>
          </mxGeometry>
        </mxCell>
        <mxCell id="jJ9Ddf4tCl4OlhonC4Wa-37" style="edgeStyle=orthogonalEdgeStyle;rounded=0;orthogonalLoop=1;jettySize=auto;html=1;exitX=0.5;exitY=0.5;exitDx=0;exitDy=0;exitPerimeter=0;entryX=1;entryY=0.5;entryDx=0;entryDy=0;" parent="1" source="x-BZ_oqAYy6QeNeLVGzr-5" target="jJ9Ddf4tCl4OlhonC4Wa-36" edge="1">
          <mxGeometry relative="1" as="geometry">
            <Array as="points">
              <mxPoint x="745" y="805" />
            </Array>
          </mxGeometry>
        </mxCell>
        <mxCell id="x-BZ_oqAYy6QeNeLVGzr-5" value="System" style="shape=umlActor;verticalLabelPosition=bottom;verticalAlign=top;html=1;" parent="1" vertex="1">
          <mxGeometry x="730" y="300" width="30" height="60" as="geometry" />
        </mxCell>
        <mxCell id="jJ9Ddf4tCl4OlhonC4Wa-2" style="edgeStyle=orthogonalEdgeStyle;rounded=0;orthogonalLoop=1;jettySize=auto;html=1;exitX=0.5;exitY=0.5;exitDx=0;exitDy=0;exitPerimeter=0;entryX=1;entryY=0.5;entryDx=0;entryDy=0;" parent="1" source="jJ9Ddf4tCl4OlhonC4Wa-1" target="x-BZ_oqAYy6QeNeLVGzr-3" edge="1">
          <mxGeometry relative="1" as="geometry">
            <Array as="points">
              <mxPoint x="805" y="45" />
            </Array>
          </mxGeometry>
        </mxCell>
        <mxCell id="jJ9Ddf4tCl4OlhonC4Wa-26" style="edgeStyle=orthogonalEdgeStyle;rounded=0;orthogonalLoop=1;jettySize=auto;html=1;exitX=0.5;exitY=0.5;exitDx=0;exitDy=0;exitPerimeter=0;entryX=0.5;entryY=1;entryDx=0;entryDy=0;" parent="1" source="jJ9Ddf4tCl4OlhonC4Wa-1" target="jJ9Ddf4tCl4OlhonC4Wa-12" edge="1">
          <mxGeometry relative="1" as="geometry">
            <Array as="points">
              <mxPoint x="805" y="590" />
              <mxPoint x="310" y="590" />
            </Array>
          </mxGeometry>
        </mxCell>
        <mxCell id="jJ9Ddf4tCl4OlhonC4Wa-27" style="edgeStyle=orthogonalEdgeStyle;rounded=0;orthogonalLoop=1;jettySize=auto;html=1;exitX=0.5;exitY=0.5;exitDx=0;exitDy=0;exitPerimeter=0;entryX=0.5;entryY=1;entryDx=0;entryDy=0;" parent="1" source="jJ9Ddf4tCl4OlhonC4Wa-1" target="jJ9Ddf4tCl4OlhonC4Wa-13" edge="1">
          <mxGeometry relative="1" as="geometry">
            <Array as="points">
              <mxPoint x="805" y="590" />
              <mxPoint x="490" y="590" />
            </Array>
          </mxGeometry>
        </mxCell>
        <mxCell id="jJ9Ddf4tCl4OlhonC4Wa-34" style="edgeStyle=orthogonalEdgeStyle;rounded=0;orthogonalLoop=1;jettySize=auto;html=1;exitX=0.5;exitY=0.5;exitDx=0;exitDy=0;exitPerimeter=0;entryX=1;entryY=0.5;entryDx=0;entryDy=0;" parent="1" source="jJ9Ddf4tCl4OlhonC4Wa-1" target="jJ9Ddf4tCl4OlhonC4Wa-29" edge="1">
          <mxGeometry relative="1" as="geometry">
            <Array as="points">
              <mxPoint x="805" y="685" />
            </Array>
          </mxGeometry>
        </mxCell>
        <mxCell id="jJ9Ddf4tCl4OlhonC4Wa-38" style="edgeStyle=orthogonalEdgeStyle;rounded=0;orthogonalLoop=1;jettySize=auto;html=1;exitX=0.5;exitY=0.5;exitDx=0;exitDy=0;exitPerimeter=0;entryX=1;entryY=0.5;entryDx=0;entryDy=0;" parent="1" source="jJ9Ddf4tCl4OlhonC4Wa-1" target="jJ9Ddf4tCl4OlhonC4Wa-36" edge="1">
          <mxGeometry relative="1" as="geometry">
            <Array as="points">
              <mxPoint x="805" y="805" />
            </Array>
          </mxGeometry>
        </mxCell>
        <mxCell id="jJ9Ddf4tCl4OlhonC4Wa-1" value="Market data provider" style="shape=umlActor;verticalLabelPosition=bottom;verticalAlign=top;html=1;" parent="1" vertex="1">
          <mxGeometry x="790" y="495" width="30" height="60" as="geometry" />
        </mxCell>
        <mxCell id="jJ9Ddf4tCl4OlhonC4Wa-4" value="Analyze portofolio performance" style="ellipse;whiteSpace=wrap;html=1;fillColor=#dae8fc;gradientColor=#7ea6e0;strokeColor=#6c8ebf;" parent="1" vertex="1">
          <mxGeometry x="330" y="130" width="140" height="70" as="geometry" />
        </mxCell>
        <mxCell id="jJ9Ddf4tCl4OlhonC4Wa-7" value="Adjust positions" style="ellipse;whiteSpace=wrap;html=1;fillColor=#dae8fc;gradientColor=#7ea6e0;strokeColor=#6c8ebf;" parent="1" vertex="1">
          <mxGeometry x="330" y="250" width="140" height="70" as="geometry" />
        </mxCell>
        <mxCell id="jJ9Ddf4tCl4OlhonC4Wa-9" value="Check investment limits" style="ellipse;whiteSpace=wrap;html=1;fillColor=#dae8fc;gradientColor=#7ea6e0;strokeColor=#6c8ebf;" parent="1" vertex="1">
          <mxGeometry x="330" y="370" width="140" height="70" as="geometry" />
        </mxCell>
        <mxCell id="jJ9Ddf4tCl4OlhonC4Wa-12" value="Buy assets" style="ellipse;whiteSpace=wrap;html=1;fillColor=#dae8fc;gradientColor=#7ea6e0;strokeColor=#6c8ebf;" parent="1" vertex="1">
          <mxGeometry x="240" y="485" width="140" height="70" as="geometry" />
        </mxCell>
        <mxCell id="jJ9Ddf4tCl4OlhonC4Wa-13" value="Sell assets" style="ellipse;whiteSpace=wrap;html=1;fillColor=#dae8fc;gradientColor=#7ea6e0;strokeColor=#6c8ebf;" parent="1" vertex="1">
          <mxGeometry x="420" y="485" width="140" height="70" as="geometry" />
        </mxCell>
        <mxCell id="jJ9Ddf4tCl4OlhonC4Wa-29" value="Generate portofolio report" style="ellipse;whiteSpace=wrap;html=1;fillColor=#dae8fc;gradientColor=#7ea6e0;strokeColor=#6c8ebf;" parent="1" vertex="1">
          <mxGeometry x="330" y="650" width="140" height="70" as="geometry" />
        </mxCell>
        <mxCell id="jJ9Ddf4tCl4OlhonC4Wa-36" value="Recieve notifications" style="ellipse;whiteSpace=wrap;html=1;fillColor=#dae8fc;gradientColor=#7ea6e0;strokeColor=#6c8ebf;" parent="1" vertex="1">
          <mxGeometry x="330" y="770" width="140" height="70" as="geometry" />
        </mxCell>
      </root>
    </mxGraphModel>
  </diagram>
</mxfile>
